<svg width="325" height="325" viewBox="0 0 325 325" fill="none" xmlns="http://www.w3.org/2000/svg">
<path d="M64.3008 124.524L148.866 37.0825C156.568 29.12 169.292 29.0387 177.092 36.8712L266.24 126.425L163.361 223.567L64.3008 124.524Z" fill="#C78538"/>
<path d="M242.646 102.554L150.297 192.757L164.402 207.106L257.238 116.431L242.646 102.554Z" fill="#B0732C"/>
<path d="M105.446 86.8565C104.227 86.8565 103.008 86.4015 102.066 85.4915C101.137 84.5926 100.604 83.362 100.583 82.07C100.561 80.7781 101.054 79.5305 101.952 78.6015L104.341 76.1315C105.239 75.2033 106.47 74.6699 107.762 74.6486C109.054 74.6273 110.302 75.1197 111.231 76.0177C112.159 76.9166 112.692 78.1473 112.713 79.4392C112.735 80.7311 112.242 81.9787 111.344 82.9077L108.956 85.3777C107.997 86.3527 106.729 86.8565 105.446 86.8565Z" fill="#333333"/>
<path d="M163.361 228.442C162.109 228.442 160.858 227.971 159.916 227.012L60.8556 127.969C59.9526 127.063 59.4401 125.84 59.428 124.561C59.4158 123.282 59.9049 122.05 60.7906 121.127L91.8281 89.0336C92.727 88.1054 93.9576 87.5721 95.2495 87.5507C96.5415 87.5294 97.789 88.0218 98.7181 88.9198C99.6462 89.8188 100.18 91.0494 100.201 92.3413C100.222 93.6332 99.7298 94.8808 98.8318 95.8098L71.1418 124.459L163.458 216.775L259.252 126.327L173.647 40.3161C172.25 38.9135 170.589 37.8031 168.758 37.0498C166.928 36.2965 164.966 35.9153 162.987 35.9286C158.957 35.9611 155.187 37.5698 152.376 40.4623L124.214 69.5823C123.315 70.5105 122.085 71.0439 120.793 71.0652C119.501 71.0865 118.253 70.5941 117.324 69.6961C116.396 68.7972 115.863 67.5666 115.841 66.2746C115.82 64.9827 116.313 63.7351 117.211 62.8061L145.372 33.6861C150.003 28.8923 156.243 26.2273 162.906 26.1786C169.633 26.0973 175.841 28.7136 180.553 33.4423L269.701 122.996C270.627 123.922 271.147 125.19 271.114 126.506C271.098 127.822 270.546 129.074 269.587 129.967L166.708 227.11C165.766 228.004 164.563 228.442 163.361 228.442Z" fill="#333333"/>
<path d="M284.717 87.7335L173.177 200.395C170.916 202.68 167.844 203.98 164.63 204.01C161.416 204.041 158.32 202.799 156.017 200.557L45.2892 93.0148C39.8617 93.3073 34.9217 95.6635 35.8642 103.642C37.8305 120.331 48.6042 228.004 48.9617 233.025C49.238 236.844 49.8392 243.75 57.168 248.82H279.923C286.212 248.82 291.46 244.042 292.062 237.786L305.517 97.4673C306.622 86.0598 292.777 79.576 284.717 87.7335Z" fill="#BB8F5A"/>
<path d="M289.395 83.6548L287.234 85.5723L272.869 228.54C272.561 231.538 271.182 234.325 268.985 236.389L258.293 246.35H287.965L302.802 87.7173L289.395 83.6548Z" fill="#AF732C"/>
<path d="M164.516 208.861C160.226 208.861 155.919 207.269 152.621 204.051L36.3357 91.1137C33.6219 88.4812 30.2744 88.6924 28.0319 89.7812C25.8057 90.8699 23.5632 93.3724 23.9532 97.1262L28.5682 140.692C28.6357 141.329 28.5771 141.974 28.3956 142.588C28.214 143.202 27.9132 143.775 27.5102 144.273C27.1073 144.771 26.6101 145.185 26.0472 145.49C25.4842 145.796 24.8666 145.988 24.2294 146.055C21.5482 146.347 19.1594 144.397 18.8669 141.716L14.2682 98.1499C13.5044 90.9187 17.2419 84.1912 23.7744 81.0062C30.3232 77.8212 37.9119 79.0399 43.1282 84.1099L159.397 197.064C162.257 199.842 166.888 199.81 169.699 196.966L194.789 171.632C195.239 171.176 195.774 170.814 196.364 170.565C196.954 170.316 197.587 170.187 198.228 170.184C198.868 170.181 199.503 170.304 200.095 170.547C200.687 170.79 201.226 171.148 201.679 171.6C202.136 172.049 202.498 172.584 202.747 173.174C202.996 173.764 203.125 174.398 203.128 175.038C203.131 175.678 203.008 176.313 202.765 176.905C202.522 177.498 202.164 178.036 201.712 178.49L176.622 203.824C173.323 207.171 168.919 208.861 164.516 208.861ZM215.134 162.89C213.899 162.89 212.648 162.419 211.706 161.476C211.25 161.027 210.887 160.492 210.638 159.902C210.39 159.312 210.26 158.678 210.257 158.038C210.254 157.398 210.378 156.763 210.621 156.171C210.864 155.578 211.221 155.04 211.673 154.586L215.297 150.93C215.746 150.474 216.281 150.111 216.871 149.862C217.462 149.614 218.095 149.484 218.735 149.481C219.375 149.478 220.01 149.602 220.602 149.845C221.195 150.088 221.733 150.446 222.187 150.897C222.643 151.347 223.006 151.882 223.254 152.472C223.503 153.062 223.633 153.695 223.636 154.336C223.639 154.976 223.515 155.611 223.272 156.203C223.029 156.795 222.671 157.334 222.219 157.787L218.596 161.444C217.653 162.402 216.386 162.89 215.134 162.89Z" fill="#333333"/>
<path d="M305.728 128.326L278.98 153.124C277.801 154.217 276.861 155.543 276.218 157.017C275.576 158.492 275.245 160.083 275.246 161.691C275.248 163.299 275.582 164.89 276.227 166.363C276.872 167.836 277.815 169.16 278.996 170.251L299.861 189.507L305.728 128.326ZM58.4026 152.701L39.0488 134.761L44.2651 187.216L58.3863 174.184C64.6426 168.399 64.6426 158.502 58.4026 152.701Z" fill="#C78538"/>
<path d="M278.867 170.121L279.013 170.267L296.677 186.566L303.795 130.13L280.443 151.775L278.867 170.121Z" fill="#956327"/>
<path d="M265.899 286.26H78.3738C67.8763 286.26 59.3613 277.745 59.3613 267.247C59.3613 256.75 67.8763 248.235 78.3738 248.235H265.899C276.396 248.235 284.911 256.75 284.911 267.247C284.911 277.745 276.396 286.26 265.899 286.26Z" fill="#C78538"/>
<path d="M257.952 250.413C257.952 250.413 268.124 257.108 268.124 266.451C268.124 275.779 265.248 282.961 244.074 283.075H275.29C278.037 283.075 284.618 275.064 284.618 266.321C284.618 257.579 281.53 250.543 257.952 250.413Z" fill="#B0732C"/>
<path d="M123.727 121.173L162.068 82.8296L200.412 121.173L162.068 159.517L123.727 121.173Z" fill="#53AD4B"/>
<path d="M161.298 88.0752L177.451 121.94L159.738 156.276L200.656 119.909L161.298 88.0752Z" fill="#34972B"/>
<path d="M162.078 164.385C160.778 164.385 159.543 163.865 158.633 162.955L120.299 124.605C119.386 123.691 118.873 122.452 118.873 121.16C118.873 119.868 119.386 118.629 120.299 117.715L158.633 79.365C160.469 77.5287 163.703 77.5287 165.523 79.365L203.873 117.715C204.783 118.625 205.303 119.876 205.303 121.16C205.303 122.444 204.783 123.695 203.873 124.605L165.523 162.955C164.613 163.865 163.361 164.385 162.078 164.385ZM130.634 121.16L162.078 152.604L193.521 121.16L162.078 89.7162L130.634 121.16Z" fill="#333333"/>
<path d="M300.625 80.8438C293.995 77.7401 286.406 79.1051 281.255 84.2888L224.754 141.375C224.302 141.829 223.944 142.367 223.701 142.96C223.458 143.552 223.335 144.187 223.338 144.827C223.341 145.467 223.47 146.1 223.719 146.691C223.968 147.281 224.33 147.816 224.786 148.265C225.24 148.717 225.779 149.075 226.371 149.318C226.963 149.561 227.598 149.684 228.238 149.681C228.878 149.678 229.512 149.549 230.102 149.3C230.692 149.051 231.227 148.689 231.676 148.233L288.178 91.1626C290.859 88.4488 294.223 88.6276 296.481 89.6838C298.74 90.7401 301.031 93.2263 300.658 97.0126L298.529 119.145L266.37 148.964C262.405 152.653 260.13 157.869 260.13 163.28C260.13 168.691 262.421 173.908 266.403 177.58L290.778 200.07L287.203 237.315C287.035 239.128 286.195 240.812 284.848 242.036C283.5 243.261 281.743 243.936 279.923 243.929H271.018C269.36 243.571 267.654 243.36 265.899 243.36H61.7827C60.0277 243.36 58.3052 243.571 56.664 243.929H46.1015C42.3477 243.929 39.2115 241.118 38.8215 237.38L34.759 198.949L57.9315 177.564C61.9127 173.891 64.204 168.675 64.204 163.264C64.204 157.853 61.929 152.62 57.964 148.948L25.0252 118.398C24.0767 117.519 22.8183 117.053 21.5264 117.102C20.2345 117.151 19.0148 117.71 18.1352 118.658C17.2567 119.606 16.7907 120.864 16.8394 122.156C16.8882 123.448 17.4477 124.668 18.3952 125.548L51.334 156.098C53.349 157.966 54.454 160.501 54.454 163.264C54.454 166.026 53.3327 168.545 51.3177 170.414L33.459 186.875L32.679 179.563C32.6146 178.924 32.4244 178.305 32.1194 177.741C31.8144 177.177 31.4007 176.679 30.9021 176.275C30.4035 175.872 29.8299 175.571 29.2145 175.391C28.5991 175.21 27.954 175.154 27.3165 175.224C26.6793 175.291 26.0616 175.483 25.4987 175.788C24.9358 176.094 24.4386 176.508 24.0357 177.006C23.6327 177.504 23.3319 178.076 23.1503 178.691C22.9688 179.305 22.9101 179.949 22.9777 180.586L29.104 238.404C29.9002 245.863 35.3765 251.745 42.4452 253.273C39.6015 257.205 37.8952 262.015 37.8952 267.231C37.8952 280.394 48.604 291.119 61.7827 291.119H104.065C106.763 291.119 108.94 288.941 108.94 286.244C108.94 283.546 106.763 281.369 104.065 281.369H61.7827C53.999 281.369 47.6452 275.031 47.6452 267.231C47.6452 260.813 51.9677 255.369 57.8502 253.663H269.831C275.714 255.369 280.036 260.796 280.036 267.231C280.036 275.015 273.699 281.369 265.899 281.369H127.384C124.686 281.369 122.509 283.546 122.509 286.244C122.509 288.941 124.686 291.119 127.384 291.119H265.899C279.061 291.119 289.786 280.41 289.786 267.231C289.786 261.853 287.983 256.913 284.976 252.915C291.428 250.949 296.254 245.294 296.936 238.225L310.375 97.9388C311.074 90.6588 307.239 83.9476 300.625 80.8438ZM269.896 163.264C269.896 160.518 271.001 157.966 273.016 156.098L297.148 133.721L291.948 187.866L273.033 170.398C272.04 169.494 271.248 168.392 270.708 167.163C270.168 165.935 269.891 164.606 269.896 163.264Z" fill="#333333"/>
<path d="M26.7156 169.504C27.3527 169.437 27.9704 169.245 28.5334 168.939C29.0963 168.633 29.5935 168.22 29.9964 167.722C30.3994 167.224 30.7002 166.651 30.8818 166.037C31.0633 165.422 31.1219 164.778 31.0544 164.141L30.5019 158.941C30.2256 156.26 27.8044 154.326 25.1394 154.602C24.5023 154.669 23.8846 154.861 23.3216 155.167C22.7587 155.473 22.2615 155.886 21.8586 156.384C21.4556 156.882 21.1548 157.455 20.9732 158.069C20.7917 158.684 20.7331 159.328 20.8006 159.965L21.3531 165.165C21.4782 166.361 22.0426 167.469 22.9371 168.273C23.8316 169.078 24.9926 169.522 26.1956 169.52C26.3744 169.536 26.5531 169.52 26.7156 169.504Z" fill="#333333"/>
<path d="M111.768 106.974C110.793 106.974 109.802 106.616 109.038 105.918C108.645 105.558 108.325 105.125 108.099 104.642C107.873 104.159 107.744 103.636 107.72 103.103C107.696 102.571 107.777 102.038 107.958 101.537C108.14 101.036 108.419 100.575 108.778 100.181L112.516 96.0863C112.875 95.6926 113.309 95.3736 113.792 95.1474C114.275 94.9213 114.798 94.7925 115.33 94.7683C115.863 94.7442 116.395 94.8252 116.896 95.0067C117.398 95.1883 117.858 95.4668 118.252 95.8263C118.646 96.1859 118.965 96.6195 119.191 97.1024C119.417 97.5853 119.546 98.108 119.57 98.6406C119.594 99.1733 119.513 99.7055 119.332 100.207C119.15 100.708 118.872 101.169 118.512 101.563L114.775 105.658C113.962 106.535 112.873 106.974 111.768 106.974ZM125.825 91.6663C124.85 91.6663 123.875 91.3251 123.095 90.6101C122.297 89.8861 121.82 88.8749 121.769 87.7992C121.717 86.7234 122.094 85.6712 122.818 84.8738L142.497 63.2126C142.855 62.8153 143.288 62.4927 143.771 62.2631C144.253 62.0335 144.777 61.9015 145.311 61.8747C145.845 61.8479 146.379 61.9269 146.882 62.107C147.386 62.2871 147.849 62.5648 148.244 62.9242C148.64 63.2837 148.961 63.7177 149.189 64.2015C149.416 64.6853 149.546 65.2092 149.571 65.7433C149.596 66.2774 149.515 66.8111 149.332 67.3138C149.15 67.8165 148.871 68.2782 148.51 68.6726L128.831 90.3338C128.035 91.2113 126.93 91.6663 125.825 91.6663ZM146.592 122.233C145.787 122.235 145 121.998 144.33 121.552C143.66 121.105 143.138 120.47 142.83 119.727C142.521 118.983 142.441 118.165 142.599 117.376C142.757 116.586 143.146 115.862 143.716 115.294L151.873 107.136C153.466 105.544 156.033 105.544 157.626 107.136C159.218 108.729 159.218 111.296 157.626 112.889L149.468 121.046C148.656 121.826 147.616 122.233 146.592 122.233ZM63.1322 222.544C62.1297 222.541 61.1635 222.168 60.4196 221.496C59.6756 220.824 59.2064 219.901 59.1022 218.904L56.5347 194.155C56.4255 193.083 56.7453 192.01 57.4244 191.173C58.1034 190.336 59.0864 189.801 60.1584 189.686C62.4009 189.443 64.3834 191.084 64.6272 193.31L67.1947 218.059C67.3039 219.131 66.984 220.204 66.3049 221.041C65.6259 221.878 64.6429 222.413 63.5709 222.528C63.4247 222.528 63.2784 222.544 63.1322 222.544ZM133.998 271.164H125.207C124.13 271.164 123.096 270.736 122.335 269.974C121.573 269.212 121.145 268.179 121.145 267.101C121.145 266.024 121.573 264.991 122.335 264.229C123.096 263.467 124.13 263.039 125.207 263.039H133.998C135.076 263.039 136.109 263.467 136.871 264.229C137.633 264.991 138.061 266.024 138.061 267.101C138.061 268.179 137.633 269.212 136.871 269.974C136.109 270.736 135.076 271.164 133.998 271.164Z" fill="white"/>
<path d="M109.07 271.164H80.5508C79.4733 271.164 78.44 270.736 77.6782 269.974C76.9163 269.212 76.4883 268.179 76.4883 267.101C76.4883 266.024 76.9163 264.99 77.6782 264.228C78.44 263.467 79.4733 263.039 80.5508 263.039H109.086C111.328 263.039 113.148 264.859 113.148 267.101C113.148 269.344 111.328 271.164 109.07 271.164Z" fill="white"/>
</svg>
