<svg width="326" height="325" viewBox="0 0 326 325" fill="none" xmlns="http://www.w3.org/2000/svg">
<path d="M64.3652 124.524L148.93 37.0825C156.633 29.12 169.356 29.0387 177.156 36.8712L266.304 126.425L163.425 223.567L64.3652 124.524Z" fill="#A7A49F"/>
<path d="M242.71 102.554L150.361 192.757L164.466 207.106L257.303 116.431L242.71 102.554Z" fill="#848079"/>
<path d="M105.51 86.8565C104.291 86.8565 103.073 86.4015 102.13 85.4915C101.202 84.5926 100.668 83.362 100.647 82.07C100.626 80.7781 101.118 79.5305 102.016 78.6015L104.405 76.1315C105.304 75.2033 106.535 74.6699 107.826 74.6486C109.118 74.6273 110.366 75.1197 111.295 76.0177C112.223 76.9166 112.757 78.1473 112.778 79.4392C112.799 80.7311 112.307 81.9787 111.409 82.9077L109.02 85.3777C108.061 86.3527 106.794 86.8565 105.51 86.8565Z" fill="#333333"/>
<path d="M163.425 228.442C162.174 228.442 160.923 227.971 159.98 227.012L60.92 127.969C60.017 127.063 59.5046 125.84 59.4924 124.561C59.4803 123.282 59.9694 122.05 60.855 121.127L91.8925 89.0336C92.7914 88.1054 94.022 87.5721 95.314 87.5507C96.6059 87.5294 97.8535 88.0218 98.7825 88.9198C99.7107 89.8188 100.244 91.0494 100.265 92.3413C100.287 93.6332 99.7943 94.8808 98.8963 95.8098L71.2063 124.459L163.523 216.775L259.316 126.327L173.711 40.3161C172.315 38.9135 170.653 37.8031 168.823 37.0498C166.992 36.2965 165.03 35.9153 163.051 35.9286C159.021 35.9611 155.251 37.5698 152.44 40.4623L124.279 69.5823C123.38 70.5105 122.149 71.0439 120.857 71.0652C119.565 71.0865 118.318 70.5941 117.389 69.6961C116.461 68.7972 115.927 67.5666 115.906 66.2746C115.885 64.9827 116.377 63.7351 117.275 62.8061L145.436 33.6861C150.068 28.8923 156.308 26.2273 162.97 26.1786C169.698 26.0973 175.905 28.7136 180.618 33.4423L269.765 122.996C270.691 123.922 271.211 125.19 271.179 126.506C271.163 127.822 270.61 129.074 269.651 129.967L166.773 227.11C165.83 228.004 164.628 228.442 163.425 228.442Z" fill="#333333"/>
<path d="M284.781 87.7335L173.241 200.395C170.981 202.68 167.909 203.98 164.695 204.01C161.48 204.041 158.384 202.799 156.081 200.557L45.3537 93.0148C39.9262 93.3073 34.9862 95.6635 35.9287 103.642C37.8949 120.331 48.6687 228.004 49.0262 233.025C49.3024 236.844 49.9037 243.75 57.2324 248.82H279.987C286.276 248.82 291.525 244.042 292.126 237.786L305.581 97.4673C306.686 86.0598 292.841 79.576 284.781 87.7335Z" fill="#D5D3CE"/>
<path d="M289.46 83.6548L287.299 85.5723L272.934 228.54C272.626 231.538 271.247 234.325 269.05 236.389L258.357 246.35H288.03L302.866 87.7173L289.46 83.6548Z" fill="#A7A49F"/>
<path d="M164.58 208.861C160.29 208.861 155.984 207.269 152.685 204.051L36.4001 91.1137C33.6864 88.4812 30.3389 88.6924 28.0964 89.7812C25.8701 90.8699 23.6276 93.3724 24.0176 97.1262L28.6326 140.692C28.7002 141.329 28.6415 141.974 28.46 142.588C28.2785 143.202 27.9776 143.775 27.5747 144.273C27.1717 144.771 26.6746 145.185 26.1116 145.49C25.5487 145.796 24.931 145.988 24.2939 146.055C21.6126 146.347 19.2239 144.397 18.9314 141.716L14.3326 98.1499C13.5689 90.9187 17.3064 84.1912 23.8389 81.0062C30.3876 77.8212 37.9764 79.0399 43.1926 84.1099L159.461 197.064C162.321 199.842 166.953 199.81 169.764 196.966L194.854 171.632C195.303 171.176 195.838 170.814 196.428 170.565C197.018 170.316 197.652 170.187 198.292 170.184C198.932 170.181 199.567 170.304 200.159 170.547C200.752 170.79 201.29 171.148 201.744 171.6C202.2 172.049 202.563 172.584 202.811 173.174C203.06 173.764 203.19 174.398 203.193 175.038C203.196 175.678 203.072 176.313 202.829 176.905C202.586 177.498 202.228 178.036 201.776 178.49L176.686 203.824C173.388 207.171 168.984 208.861 164.58 208.861ZM215.199 162.89C213.964 162.89 212.713 162.419 211.77 161.476C211.314 161.027 210.951 160.492 210.703 159.902C210.454 159.312 210.324 158.678 210.321 158.038C210.318 157.398 210.442 156.763 210.685 156.171C210.928 155.578 211.286 155.04 211.738 154.586L215.361 150.93C215.811 150.474 216.346 150.111 216.936 149.862C217.526 149.614 218.159 149.484 218.8 149.481C219.44 149.478 220.074 149.602 220.667 149.845C221.259 150.088 221.798 150.446 222.251 150.897C222.708 151.347 223.07 151.882 223.319 152.472C223.568 153.062 223.697 153.695 223.7 154.336C223.703 154.976 223.58 155.611 223.337 156.203C223.093 156.795 222.736 157.334 222.284 157.787L218.66 161.444C217.718 162.402 216.45 162.89 215.199 162.89Z" fill="#333333"/>
<path d="M305.792 128.326L279.045 153.124C277.865 154.217 276.925 155.543 276.283 157.017C275.64 158.492 275.309 160.083 275.311 161.691C275.312 163.299 275.646 164.89 276.292 166.363C276.937 167.836 277.88 169.16 279.061 170.251L299.926 189.507L305.792 128.326ZM58.467 152.701L39.1133 134.761L44.3295 187.216L58.4508 174.184C64.707 168.399 64.707 158.502 58.467 152.701Z" fill="#A7A49F"/>
<path d="M278.932 170.121L279.078 170.267L296.742 186.566L303.859 130.13L280.508 151.775L278.932 170.121Z" fill="#84807A"/>
<path d="M265.963 286.26H78.4383C67.9408 286.26 59.4258 277.745 59.4258 267.247C59.4258 256.75 67.9408 248.235 78.4383 248.235H265.963C276.461 248.235 284.976 256.75 284.976 267.247C284.976 277.745 276.461 286.26 265.963 286.26Z" fill="#A7A49F"/>
<path d="M258.016 250.413C258.016 250.413 268.189 257.108 268.189 266.451C268.189 275.779 265.312 282.961 244.139 283.075H275.355C278.101 283.075 284.682 275.064 284.682 266.321C284.682 257.579 281.595 250.543 258.016 250.413Z" fill="#848079"/>
<path d="M123.791 121.173L162.133 82.8296L200.476 121.173L162.133 159.517L123.791 121.173Z" fill="#E05435"/>
<path d="M161.363 88.0752L177.515 121.94L159.803 156.276L200.72 119.909L161.363 88.0752Z" fill="#CA3716"/>
<path d="M162.142 164.385C160.842 164.385 159.607 163.865 158.697 162.955L120.363 124.605C119.45 123.691 118.938 122.452 118.938 121.16C118.938 119.868 119.45 118.629 120.363 117.715L158.697 79.365C160.533 77.5287 163.767 77.5287 165.587 79.365L203.937 117.715C204.847 118.625 205.367 119.876 205.367 121.16C205.367 122.444 204.847 123.695 203.937 124.605L165.587 162.955C164.677 163.865 163.426 164.385 162.142 164.385ZM130.698 121.16L162.142 152.604L193.586 121.16L162.142 89.7162L130.698 121.16Z" fill="#333333"/>
<path d="M300.69 80.8438C294.06 77.7401 286.471 79.1051 281.32 84.2888L224.818 141.375C224.367 141.829 224.009 142.367 223.766 142.96C223.523 143.552 223.399 144.187 223.402 144.827C223.405 145.467 223.535 146.1 223.783 146.691C224.032 147.281 224.395 147.816 224.851 148.265C225.305 148.717 225.843 149.075 226.435 149.318C227.028 149.561 227.662 149.684 228.303 149.681C228.943 149.678 229.576 149.549 230.166 149.3C230.756 149.051 231.292 148.689 231.741 148.233L288.242 91.1626C290.923 88.4488 294.287 88.6276 296.546 89.6838C298.805 90.7401 301.096 93.2263 300.722 97.0126L298.593 119.145L266.435 148.964C262.47 152.653 260.195 157.869 260.195 163.28C260.195 168.691 262.486 173.908 266.467 177.58L290.842 200.07L287.267 237.315C287.1 239.128 286.26 240.812 284.912 242.036C283.565 243.261 281.808 243.936 279.987 243.929H271.082C269.425 243.571 267.718 243.36 265.963 243.36H61.8472C60.0922 243.36 58.3697 243.571 56.7284 243.929H46.1659C42.4122 243.929 39.2759 241.118 38.8859 237.38L34.8234 198.949L57.9959 177.564C61.9772 173.891 64.2684 168.675 64.2684 163.264C64.2684 157.853 61.9934 152.62 58.0284 148.948L25.0897 118.398C24.1412 117.519 22.8828 117.053 21.5909 117.102C20.299 117.151 19.0792 117.71 18.1997 118.658C17.3212 119.606 16.8551 120.864 16.9039 122.156C16.9526 123.448 17.5122 124.668 18.4597 125.548L51.3984 156.098C53.4134 157.966 54.5184 160.501 54.5184 163.264C54.5184 166.026 53.3972 168.545 51.3822 170.414L33.5234 186.875L32.7434 179.563C32.679 178.924 32.4888 178.305 32.1838 177.741C31.8789 177.177 31.4651 176.679 30.9665 176.275C30.4679 175.872 29.8944 175.571 29.2789 175.391C28.6635 175.21 28.0184 175.154 27.3809 175.224C26.7438 175.291 26.1261 175.483 25.5632 175.788C25.0002 176.094 24.5031 176.508 24.1001 177.006C23.6972 177.504 23.3963 178.076 23.2148 178.691C23.0333 179.305 22.9746 179.949 23.0422 180.586L29.1684 238.404C29.9647 245.863 35.4409 251.745 42.5097 253.273C39.6659 257.205 37.9597 262.015 37.9597 267.231C37.9597 280.394 48.6684 291.119 61.8472 291.119H104.13C106.827 291.119 109.005 288.941 109.005 286.244C109.005 283.546 106.827 281.369 104.13 281.369H61.8472C54.0634 281.369 47.7097 275.031 47.7097 267.231C47.7097 260.813 52.0322 255.369 57.9147 253.663H269.896C275.778 255.369 280.101 260.796 280.101 267.231C280.101 275.015 273.763 281.369 265.963 281.369H127.448C124.751 281.369 122.573 283.546 122.573 286.244C122.573 288.941 124.751 291.119 127.448 291.119H265.963C279.126 291.119 289.851 280.41 289.851 267.231C289.851 261.853 288.047 256.913 285.041 252.915C291.492 250.949 296.318 245.294 297.001 238.225L310.44 97.9388C311.138 90.6588 307.303 83.9476 300.69 80.8438ZM269.961 163.264C269.961 160.518 271.066 157.966 273.081 156.098L297.212 133.721L292.012 187.866L273.097 170.398C272.104 169.494 271.312 168.392 270.772 167.163C270.232 165.935 269.956 164.606 269.961 163.264Z" fill="#333333"/>
<path d="M26.7801 169.504C27.4172 169.437 28.0349 169.245 28.5978 168.939C29.1608 168.633 29.6579 168.22 30.0609 167.722C30.4638 167.224 30.7647 166.651 30.9462 166.037C31.1277 165.422 31.1864 164.778 31.1188 164.141L30.5663 158.941C30.2901 156.26 27.8688 154.326 25.2038 154.602C24.5667 154.669 23.949 154.861 23.3861 155.167C22.8231 155.473 22.326 155.886 21.923 156.384C21.5201 156.882 21.2192 157.455 21.0377 158.069C20.8562 158.684 20.7975 159.328 20.8651 159.965L21.4176 165.165C21.5427 166.361 22.107 167.469 23.0015 168.273C23.896 169.078 25.0571 169.522 26.2601 169.52C26.4388 169.536 26.6176 169.52 26.7801 169.504Z" fill="#333333"/>
<path d="M111.833 106.974C110.858 106.974 109.867 106.616 109.103 105.918C108.709 105.558 108.39 105.125 108.164 104.642C107.937 104.159 107.809 103.636 107.784 103.103C107.76 102.571 107.841 102.038 108.023 101.537C108.205 101.036 108.483 100.575 108.843 100.181L112.58 96.0863C112.94 95.6926 113.374 95.3736 113.856 95.1474C114.339 94.9213 114.862 94.7925 115.395 94.7683C115.927 94.7442 116.46 94.8252 116.961 95.0067C117.462 95.1883 117.923 95.4668 118.317 95.8263C118.71 96.1859 119.029 96.6195 119.256 97.1024C119.482 97.5853 119.61 98.108 119.635 98.6406C119.659 99.1733 119.578 99.7055 119.396 100.207C119.215 100.708 118.936 101.169 118.577 101.563L114.839 105.658C114.027 106.535 112.938 106.974 111.833 106.974ZM125.889 91.6663C124.914 91.6663 123.939 91.3251 123.159 90.6101C122.362 89.8861 121.885 88.8749 121.833 87.7992C121.781 86.7234 122.159 85.6712 122.883 84.8738L142.562 63.2126C142.919 62.8153 143.352 62.4927 143.835 62.2631C144.318 62.0335 144.841 61.9015 145.375 61.8747C145.909 61.8479 146.443 61.9269 146.947 62.107C147.45 62.2871 147.913 62.5648 148.309 62.9242C148.705 63.2837 149.026 63.7177 149.253 64.2015C149.481 64.6853 149.611 65.2092 149.635 65.7433C149.66 66.2774 149.579 66.8111 149.397 67.3138C149.215 67.8165 148.935 68.2782 148.574 68.6726L128.895 90.3338C128.099 91.2113 126.994 91.6663 125.889 91.6663ZM146.657 122.233C145.852 122.235 145.064 121.998 144.394 121.552C143.724 121.105 143.202 120.47 142.894 119.727C142.586 118.983 142.506 118.165 142.663 117.376C142.821 116.586 143.21 115.862 143.78 115.294L151.938 107.136C153.53 105.544 156.098 105.544 157.69 107.136C159.283 108.729 159.283 111.296 157.69 112.889L149.533 121.046C148.72 121.826 147.68 122.233 146.657 122.233ZM63.1966 222.544C62.1941 222.541 61.228 222.168 60.484 221.496C59.7401 220.824 59.2709 219.901 59.1666 218.904L56.5991 194.155C56.4899 193.083 56.8098 192.01 57.4888 191.173C58.1679 190.336 59.1509 189.801 60.2229 189.686C62.4654 189.443 64.4479 191.084 64.6916 193.31L67.2591 218.059C67.3683 219.131 67.0484 220.204 66.3694 221.041C65.6903 221.878 64.7074 222.413 63.6354 222.528C63.4891 222.528 63.3429 222.544 63.1966 222.544ZM134.063 271.164H125.272C124.194 271.164 123.161 270.736 122.399 269.974C121.637 269.212 121.209 268.179 121.209 267.101C121.209 266.024 121.637 264.991 122.399 264.229C123.161 263.467 124.194 263.039 125.272 263.039H134.063C135.14 263.039 136.174 263.467 136.935 264.229C137.697 264.991 138.125 266.024 138.125 267.101C138.125 268.179 137.697 269.212 136.935 269.974C136.174 270.736 135.14 271.164 134.063 271.164Z" fill="white"/>
<path d="M109.134 271.164H80.6152C79.5378 271.164 78.5045 270.736 77.7426 269.974C76.9807 269.212 76.5527 268.179 76.5527 267.101C76.5527 266.024 76.9807 264.99 77.7426 264.228C78.5045 263.467 79.5378 263.039 80.6152 263.039H109.15C111.393 263.039 113.213 264.859 113.213 267.101C113.213 269.344 111.393 271.164 109.134 271.164Z" fill="white"/>
</svg>
